<svg id="Layer_1" data-name="Layer 1" xmlns="http://www.w3.org/2000/svg" viewBox="0 0 66 48"><defs><style>.cls-1{fill:#00a99d;}</style></defs><title>header-logo</title><path class="cls-1" d="M28.38,17.22a2.68,2.68,0,0,1,1.32.21A1.2,1.2,0,0,0,31,17.7c0-1.35,0-2-1.14-2S28,17.37,28.38,17.22Z"/><path class="cls-1" d="M43.48,15l-.3,0a2.34,2.34,0,0,0-.42.06A1.66,1.66,0,0,1,43,16.68a1.58,1.58,0,0,1-2.06.93,1.65,1.65,0,0,1-.93-.87,4.54,4.54,0,0,0-1,2.78A4.42,4.42,0,0,0,43.45,24,4.39,4.39,0,0,0,47,22.09a4.64,4.64,0,0,0,.78-2.54A4.41,4.41,0,0,0,43.48,15Z"/><path class="cls-1" d="M58.26,17a11.72,11.72,0,0,0-1.43.12.54.54,0,0,1-.06-.21c-.06-.18-.09-.36-.15-.53-.09-.36-.24-.71-.36-1.07s-.27-.68-.42-1-.27-.68-.45-1-.33-.65-.51-1l-.54-.95c-.18-.3-.39-.62-.6-.92l-.63-.89c-.24-.3-.45-.59-.69-.86l-.72-.83c-.27-.27-.51-.53-.78-.77a9.49,9.49,0,0,1-.78-.77c-.27-.27-.57-.47-.84-.71s-.6-.44-.87-.68a10.07,10.07,0,0,0-.93-.62c-.33-.21-.6-.41-.93-.59s-.63-.38-1-.56l-1-.53a11.2,11.2,0,0,0-1-.47c-.36-.15-.72-.3-1.08-.41s-.72-.27-1.11-.38-.75-.24-1.11-.33-.78-.21-1.14-.3L38.05.47c-.36-.09-.78-.12-1.17-.21L35.69.12A8.54,8.54,0,0,0,34.46,0c-.39,0-.78,0-1.2,0h-.18C20.06.06,9.42,9.23,8.7,21.51a8.81,8.81,0,0,0,0,.89v.7a6.87,6.87,0,0,0,0,.78c0,.24,0,.45,0,.66H6.58a4.44,4.44,0,0,0-.29-.66,2.93,2.93,0,0,0-.5-.69,3.66,3.66,0,0,0-.65-.54,7,7,0,0,0-.83-.39,3.07,3.07,0,0,0-.91-.12H3.27a3.3,3.3,0,0,0-1.77.6,4.51,4.51,0,0,0-.91.93A3.18,3.18,0,0,0,0,25.47v.3a4.38,4.38,0,0,0,.12.9,2.58,2.58,0,0,0,.39.81,2.31,2.31,0,0,0,.54.64,2.28,2.28,0,0,0,.69.49,4.49,4.49,0,0,0,.87.35,2.74,2.74,0,0,0,.84.09c.09,0,.15,0,.24,0h.06a3.35,3.35,0,0,0,2.9-2.09H9.1s.09.61.12.67c.06.23.09.44.15.67.09.44.24.9.36,1.34a26.43,26.43,0,0,0,1,2.56A26.4,26.4,0,0,0,12,34.56a21.63,21.63,0,0,0,1.59,2.21,22.76,22.76,0,0,0,2,2.15c.51.49,1.08,1,1.62,1.4.33.26.66.49,1,.73s.69.47,1,.7.75.44,1.11.64.75.41,1.14.58.78.38,1.2.55.84.35,1.26.49l1.32.44c.36.12.75.23,1.11.32l.27.09c.45.12.93.26,1.41.38s1,.2,1.47.26a1.82,1.82,0,0,0,.42.06,3,3,0,0,0,.42.87,3.59,3.59,0,0,0,.87.9,2.5,2.5,0,0,0,.36.23s0,0,.06,0a3.32,3.32,0,0,0,1.62.41,3.58,3.58,0,0,0,1.14-.2,2.56,2.56,0,0,0,.42-.17.11.11,0,0,0,.06,0l.15-.09a3.25,3.25,0,0,0,1.53-1.89.1.1,0,0,1,0-.09s0-.06,0-.09a2.62,2.62,0,0,0,.12-.84,3.27,3.27,0,0,0-1.11-2.47,3.57,3.57,0,0,0-1.17-.67,0,0,0,0,1,0,0V35.91h-1.8A14.31,14.31,0,0,1,31,35.73c-.48-.09-1-.21-1.44-.33A7.21,7.21,0,0,1,28.26,35a11.18,11.18,0,0,1-1.2-.6,8.53,8.53,0,0,1-1.11-.69c-.36-.24-.69-.51-1-.75s-.6-.57-.9-.87a8.08,8.08,0,0,1-.81-1q-.36-.5-.72-1.08a8.62,8.62,0,0,1-.6-1.17,11,11,0,0,1-.45-1.29c-.06-.21-.09-.42-.15-.6H33.48V24.54H20.92V24a8.58,8.58,0,0,1,.27-2,9.17,9.17,0,0,1,.57-1.75,11.62,11.62,0,0,1,6.07-6,13.75,13.75,0,0,1,1.85-.65,16.29,16.29,0,0,1,2.15-.38c.33,0,.69-.06,1-.06h1.26s.09-.41.12-.59,0-.06,0-.09a2.76,2.76,0,0,1,.18-.44,4.45,4.45,0,0,1,.27-.53c0-.09.09-.12.09-.21a.43.43,0,0,0,.06-.09s0,0,0-.06,0,0,0-.06a6.67,6.67,0,0,1,3.26-2.43,9.45,9.45,0,0,1,2.36-.59A9.69,9.69,0,0,1,42.42,8a3.1,3.1,0,0,1,.51,0c.39,0,.78.06,1.14.12a12.69,12.69,0,0,1,1.43.36A11.39,11.39,0,0,1,46.75,9a9.84,9.84,0,0,1,1.11.65,8.69,8.69,0,0,1,1,.77c.3.27.6.56.9.86a12.31,12.31,0,0,1,.81.95,10.77,10.77,0,0,1,.72,1c.24.38.45.77.63,1.09a11.06,11.06,0,0,1,.57,1.21c.18.44.33.89.45,1.27s.18.65.24,1,.12.68.21,1A7.67,7.67,0,1,0,66,24.74,7.77,7.77,0,0,0,58.26,17ZM1.93,25.57A1.4,1.4,0,1,1,3.33,27,1.4,1.4,0,0,1,1.93,25.57ZM34.45,45.08A1.4,1.4,0,1,1,33,43.67,1.42,1.42,0,0,1,34.45,45.08Zm4-40a11.18,11.18,0,0,0-2,.78,9.79,9.79,0,0,0-3.8,3.83C32.25,10.44,32,11,32,11.1v0l-.87.09c-.51.09-1,.15-1.46.27a10.24,10.24,0,0,0-1.7.51,12.72,12.72,0,0,0-2.24,1,14.25,14.25,0,0,0-5.23,5.27,11.81,11.81,0,0,0-1,2.18,11.08,11.08,0,0,0-.42,1.65c-.09.45-.15.93-.21,1.41s-.06.72-.06,1.08v.21A14.7,14.7,0,0,0,19,26.49c.09.51.18,1,.3,1.47s.27.9.42,1.32a11.24,11.24,0,0,0,.57,1.23c.21.39.42.75.63,1.11a8.37,8.37,0,0,0,.75,1c.27.33.54.63.81.93a12.28,12.28,0,0,0,.9.87,12.05,12.05,0,0,0,1,.78q.49.36,1.08.72c.39.24.75.42,1.14.63a10.91,10.91,0,0,0,1.23.54,9.62,9.62,0,0,0,1.32.42,10.08,10.08,0,0,0,1.43.33c.51.09,1,.15,1.52.21V41.9h0a3.74,3.74,0,0,0-1.11.66,21.46,21.46,0,0,1-11.9-5c-.24-.18-.42-.39-.66-.6a18.85,18.85,0,0,1,0-27.65,21.43,21.43,0,0,1,13.18-5.6l.48,0,.63,0c.21,0,.39,0,.6,0a3.81,3.81,0,0,1,.6,0c.39,0,.78,0,1.14.06L36,3.83c.36,0,.72.09,1,.15s.69.12,1,.21.66.15,1,.24.78.21,1.17.33A7,7,0,0,0,38.47,5.06Zm19.8,23.83A3.92,3.92,0,1,1,62.19,25,3.93,3.93,0,0,1,58.27,28.89Z"/></svg>