<svg id="Layer_1" data-name="Layer 1" xmlns="http://www.w3.org/2000/svg" viewBox="0 0 256 256"><defs><style>.cls-1{fill:#fff;}.cls-2{fill:#45a59d;}</style></defs><title>twitter-diamond</title><path class="cls-1" d="M128,252a32.8,32.8,0,0,1-23.4-9.6l-91-91a33.3,33.3,0,0,1,0-46.8l91-91a33.3,33.3,0,0,1,46.8,0l91,91a33.3,33.3,0,0,1,0,46.8l-91,91A32.8,32.8,0,0,1,128,252Z" transform="translate(0 0)"/><path class="cls-2" d="M128,8a28.5,28.5,0,0,1,20.5,8.5l91,91a29,29,0,0,1,0,41l-91,91a29,29,0,0,1-41,0l-91-91a28.9,28.9,0,0,1,0-41l91-91A28.5,28.5,0,0,1,128,8m0-8a36.9,36.9,0,0,0-26.2,10.8l-91,91a37.2,37.2,0,0,0,0,52.4l91,91a37.2,37.2,0,0,0,52.4,0l91-91a37.2,37.2,0,0,0,0-52.4l-91-91A36.9,36.9,0,0,0,128,0Z" transform="translate(0 0)"/><path class="cls-1" d="M116.4,104.9c1.4-.4,4.2.7,4.2.7a4,4,0,0,0,4.1.8c0-4.1.1-6-3.6-6S115.2,105.4,116.4,104.9Z" transform="translate(0 0)"/><path class="cls-2" d="M121,100.4c-3.5,0-5.6,4.6-4.7,4.6h.9a10.8,10.8,0,0,1,3.4.8,4.5,4.5,0,0,0,2.7,1.1,3.5,3.5,0,0,0,1.4-.3c0-4.1.1-6-3.6-6Z" transform="translate(0 0)"/><path class="cls-1" d="M161.2,97h-.9l-1.3.2a5.2,5.2,0,0,1,.8,5,4.9,4.9,0,0,1-6.4,2.9,5.1,5.1,0,0,1-2.9-2.7,14.1,14.1,0,0,0,10.6,22.8,14,14,0,0,0,11.2-6,14.8,14.8,0,0,0,2.5-8A13.8,13.8,0,0,0,161.2,97Z" transform="translate(0 0)"/><path class="cls-2" d="M161.2,97h-.9l-1.3.2a5.2,5.2,0,0,1,.8,5,4.9,4.9,0,0,1-4.6,3.3,5.8,5.8,0,0,1-1.8-.4,5.1,5.1,0,0,1-2.9-2.7,14.1,14.1,0,0,0,10.6,22.8,14,14,0,0,0,11.2-6,14.8,14.8,0,0,0,2.5-8A13.8,13.8,0,0,0,161.2,97Z" transform="translate(0 0)"/><path class="cls-1" d="M216.6,106.9a23.6,23.6,0,0,0-10.1-2.2,31.1,31.1,0,0,0-4.3.3,1.9,1.9,0,0,1-.2-.7,89.3,89.3,0,0,0-5.7-14,70.1,70.1,0,0,0-8.8-12.7,71.5,71.5,0,0,0-13-11.6,78.2,78.2,0,0,0-31.3-12.5,77.1,77.1,0,0,0-29.9.7A79.6,79.6,0,0,0,88.9,64,72.6,72.6,0,0,0,70.1,81a67.4,67.4,0,0,0-11.4,22.7,82.2,82.2,0,0,0-2.5,14.7,26.2,26.2,0,0,0-.1,2.8v1.2a18.5,18.5,0,0,0,.1,2.4c0,.7.1,1.4.1,2H51.9a12.4,12.4,0,0,0-12-9.5,12.6,12.6,0,1,0,0,25.1,12.3,12.3,0,0,0,11.8-8.8H57c.1,0,.7,4,.8,4.2a47.7,47.7,0,0,0,1.5,5.4,65.5,65.5,0,0,0,4.2,10.3,72.3,72.3,0,0,0,13,17.6c7.2,7.2,16.2,12.4,25.7,16,2.6,1,5.2,1.8,7.9,2.6l5.4,1.3,1.5.2.7.2a12.5,12.5,0,1,0,15.8-14.2V177c0-5.4.1-10.7,0-16.1h-6.6c-2.1-.2-4.1-.5-6.2-.9a37.6,37.6,0,0,1-20.4-13.1,28.7,28.7,0,0,1-4.9-8.7l-.9-2.6c-.2-.6-.2-1.2-.4-1.8h37v-6.8H93.3v-.8a24.3,24.3,0,0,1,.8-6.1,26,26,0,0,1,1.7-5.4,34.1,34.1,0,0,1,8.5-12,37.4,37.4,0,0,1,13.8-7.9A42.8,42.8,0,0,1,126,93l4.1-.2c.3,0,3.1.1,3.1,0a11.6,11.6,0,0,0,.4-1.8,13.3,13.3,0,0,1,1-2.4,18,18,0,0,1,2.1-3.5l1.7-1.8c9.5-8.5,24.6-8.2,35.2-2s14.9,15.6,17.4,25.9c.3,1.1.4,2.1.6,3.1a24.1,24.1,0,0,0-8.4,18,23.4,23.4,0,1,0,46.8,0A24.3,24.3,0,0,0,216.6,106.9ZM39.9,135.3a5.4,5.4,0,1,1,5.2-5.4A5.3,5.3,0,0,1,39.9,135.3ZM130,183.8a5.4,5.4,0,1,1-5.3,5.4A5.4,5.4,0,0,1,130,183.8ZM146.1,67.4a48.4,48.4,0,0,0-6.1,2.4,30.7,30.7,0,0,0-11.5,11.6c-1.2,2.4-1.9,4-2.1,4.5l-2.2.2c-9.7-.1-39,7.7-39,43.8,0,15.6,13.6,37.2,41.2,38.3v9a12.8,12.8,0,0,0-5.9,3.8,64.9,64.9,0,0,1-33.6-14.7l-2-1.9a57.3,57.3,0,0,1,0-84,65.2,65.2,0,0,1,40.1-17l3.6-.2a65.6,65.6,0,0,1,14,1.1,87,87,0,0,1,8.8,2.2A24.5,24.5,0,0,0,146.1,67.4ZM206.5,140a11.9,11.9,0,1,1,11.9-11.9A12,12,0,0,1,206.5,140Z" transform="translate(0 0)"/><path class="cls-2" d="M130,52.4a78.3,78.3,0,0,0-16.7,1.8A79.6,79.6,0,0,0,88.9,64,72.6,72.6,0,0,0,70.1,81a67.4,67.4,0,0,0-11.4,22.7,82.2,82.2,0,0,0-2.5,14.7,26.2,26.2,0,0,0-.1,2.8v1.2a18.5,18.5,0,0,0,.1,2.4c0,.7.1,1.4.1,2H51.9a12.4,12.4,0,0,0-12-9.5,12.6,12.6,0,1,0,0,25.1,12.3,12.3,0,0,0,11.8-8.8H57c.1,0,.7,4,.8,4.2a47.7,47.7,0,0,0,1.5,5.4,65.5,65.5,0,0,0,4.2,10.3,72.3,72.3,0,0,0,13,17.6c7.2,7.2,16.2,12.4,25.7,16,2.6,1,5.2,1.8,7.9,2.6l5.4,1.3,1.5.2.7.2a12.5,12.5,0,1,0,15.8-14.2V177c0-5.4.1-10.7,0-16.1h-6.6c-2.1-.2-4.1-.5-6.2-.9a37.6,37.6,0,0,1-20.4-13.1,28.7,28.7,0,0,1-4.9-8.7l-.9-2.6c-.2-.6-.2-1.2-.4-1.8h37v-6.8H93.3v-.8a24.3,24.3,0,0,1,.8-6.1,26,26,0,0,1,1.7-5.4,34.1,34.1,0,0,1,8.5-12,37.4,37.4,0,0,1,13.8-7.9A42.8,42.8,0,0,1,126,93l4.1-.2h3.1a11.6,11.6,0,0,0,.4-1.8,13.3,13.3,0,0,1,1-2.4,18,18,0,0,1,2.1-3.5l1.7-1.8a27,27,0,0,1,18.2-6.5,34.3,34.3,0,0,1,17,4.5c9.3,5.5,14.9,15.6,17.4,25.9.3,1.1.4,2.1.6,3.1a24.1,24.1,0,0,0-8.4,18,23.4,23.4,0,1,0,46.8,0,24.3,24.3,0,0,0-13.4-21.4,23.6,23.6,0,0,0-10.1-2.2h-.1a29.7,29.7,0,0,0-4.2.3,1.9,1.9,0,0,1-.2-.7,89.3,89.3,0,0,0-5.7-14,70.1,70.1,0,0,0-8.8-12.7,71.5,71.5,0,0,0-13-11.6,78.2,78.2,0,0,0-31.3-12.5A73.5,73.5,0,0,0,130,52.4ZM120.5,181a64.9,64.9,0,0,1-33.6-14.7l-2-1.9a57.3,57.3,0,0,1,0-84,65.2,65.2,0,0,1,40.1-17l3.6-.2H131a64.2,64.2,0,0,1,11.6,1.1,87,87,0,0,1,8.8,2.2,24.5,24.5,0,0,0-5.3.9,48.4,48.4,0,0,0-6.1,2.4,30.7,30.7,0,0,0-11.5,11.6c-1.2,2.4-1.9,4-2.1,4.5l-2.2.2H124c-9.9,0-38.8,8-38.8,43.8,0,15.6,13.6,37.2,41.2,38.3v9a12.8,12.8,0,0,0-5.9,3.8Zm86-41a11.9,11.9,0,1,1,11.9-11.9A12,12,0,0,1,206.5,140ZM39.9,135.3a5.4,5.4,0,1,1,5.2-5.4,5.3,5.3,0,0,1-5.2,5.4ZM130,194.5a5.4,5.4,0,1,1,5.3-5.3,5.3,5.3,0,0,1-5.3,5.3Z" transform="translate(0 0)"/></svg>